<svg width="900" height="160" viewBox="0 0 900 160" fill="none" xmlns="http://www.w3.org/2000/svg">
<path d="M868.587 51.8631C867.261 47.7567 865.432 44.0811 863.099 40.8365C860.82 37.5412 858.063 34.7275 854.828 32.3954C851.647 30.0634 847.989 28.3143 843.853 27.1483C839.718 25.9316 835.211 25.3232 830.334 25.3232C821.585 25.3232 813.792 27.4271 806.952 31.635C800.113 35.8428 794.731 42.0279 790.808 50.1901C786.937 58.3016 785.002 68.1876 785.002 79.8479C785.002 91.6096 786.937 101.572 790.808 109.734C794.678 117.896 800.06 124.106 806.952 128.365C813.845 132.573 821.85 134.677 830.97 134.677C839.241 134.677 846.398 133.156 852.443 130.114C858.54 127.072 863.232 122.763 866.519 117.186C869.806 111.559 871.45 104.968 871.45 97.4145L878.13 98.403H833.912V76.3498H900.001V95.057C900.001 108.39 897.032 119.924 891.094 129.658C885.155 139.392 876.991 146.895 866.599 152.167C856.207 157.389 844.278 160 830.811 160C815.806 160 802.631 156.781 791.285 150.342C779.992 143.853 771.164 134.651 764.802 122.738C758.493 110.773 755.338 96.5779 755.338 80.1521C755.338 67.5792 757.194 56.3498 760.905 46.4639C764.669 36.5779 769.918 28.1876 776.652 21.2928C783.385 14.3473 791.285 9.07478 800.351 5.47528C809.417 1.82509 819.279 0 829.936 0C838.949 0 847.353 1.26743 855.147 3.80228C862.94 6.28644 869.859 9.83523 875.904 14.4487C882.001 19.0621 887.011 24.5374 890.935 30.8745C894.858 37.2117 897.429 44.2079 898.649 51.8631H868.587Z" fill="#99B400"/>
<path d="M747.255 80C747.255 96.7807 743.968 111.153 737.394 123.118C730.872 135.032 721.965 144.157 710.672 150.494C699.432 156.831 686.681 160 672.419 160C658.157 160 645.379 156.831 634.086 150.494C622.846 144.106 613.938 134.956 607.364 123.042C600.843 111.077 597.582 96.73 597.582 80C597.582 63.2193 600.843 48.872 607.364 36.9582C613.938 24.9937 622.846 15.8428 634.086 9.5057C645.379 3.16856 658.157 0 672.419 0C686.681 0 699.432 3.16856 710.672 9.5057C721.965 15.8428 730.872 24.9937 737.394 36.9582C743.968 48.872 747.255 63.2193 747.255 80ZM717.591 80C717.591 68.1876 715.656 58.2256 711.785 50.1141C707.968 41.9518 702.666 35.7921 695.88 31.635C689.093 27.4271 681.273 25.3232 672.419 25.3232C663.564 25.3232 655.744 27.4271 648.958 31.635C642.171 35.7921 636.843 41.9518 632.972 50.1141C629.155 58.2256 627.246 68.1876 627.246 80C627.246 91.8124 629.155 101.8 632.972 109.962C636.843 118.074 642.171 124.233 648.958 128.441C655.744 132.598 663.564 134.677 672.419 134.677C681.273 134.677 689.093 132.598 695.88 128.441C702.666 124.233 707.968 118.074 711.785 109.962C715.656 101.8 717.591 91.8124 717.591 80Z" fill="#99B400"/>
<path d="M510.308 157.871H455.115V2.12964H511.422C527.592 2.12964 541.484 5.24751 553.095 11.4833C564.759 17.6683 573.719 26.5656 579.976 38.1753C586.232 49.7849 589.36 63.6759 589.36 79.8483C589.36 96.0714 586.205 110.013 579.896 121.673C573.64 133.334 564.6 142.282 552.777 148.518C541.006 154.753 526.85 157.871 510.308 157.871ZM484.62 133.46H508.877C520.223 133.46 529.687 131.483 537.269 127.529C544.85 123.524 550.55 117.567 554.367 109.658C558.185 101.699 560.093 91.7621 560.093 79.8483C560.093 67.9345 558.185 58.0485 554.367 50.1905C550.55 42.2817 544.903 36.3755 537.428 32.4719C530.005 28.5175 520.78 26.5403 509.752 26.5403H484.62V133.46Z" fill="#99B400"/>
<path d="M443.772 54.6768H414.028C413.18 50.0127 411.616 45.8809 409.336 42.2814C407.056 38.6312 404.22 35.5387 400.827 33.0038C397.433 30.4689 393.563 28.5678 389.215 27.3004C384.921 25.9823 380.282 25.3232 375.298 25.3232C366.444 25.3232 358.597 27.4525 351.757 31.711C344.918 35.9189 339.563 42.1039 335.692 50.2662C331.822 58.3777 329.887 68.289 329.887 80C329.887 91.9138 331.822 101.952 335.692 110.114C339.616 118.226 344.971 124.36 351.757 128.517C358.597 132.624 366.417 134.677 375.218 134.677C380.096 134.677 384.656 134.068 388.897 132.852C393.192 131.584 397.036 129.734 400.429 127.3C403.875 124.867 406.765 121.876 409.098 118.327C411.483 114.778 413.127 110.722 414.028 106.16L443.772 106.312C442.659 113.714 440.246 120.659 436.535 127.148C432.877 133.638 428.078 139.366 422.14 144.335C416.202 149.252 409.257 153.105 401.304 155.894C393.351 158.631 384.523 160 374.821 160C360.506 160 347.728 156.831 336.488 150.494C325.248 144.157 316.393 135.006 309.925 123.042C303.457 111.077 300.223 96.73 300.223 80C300.223 63.2193 303.483 48.872 310.005 36.9582C316.526 24.9937 325.407 15.8428 336.647 9.5057C347.887 3.16856 360.612 0 374.821 0C383.887 0 392.317 1.21673 400.111 3.65018C407.905 6.08365 414.85 9.6578 420.947 14.3726C427.045 19.0368 432.055 24.7655 435.978 31.5589C439.955 38.3017 442.553 46.0076 443.772 54.6768Z" fill="#99B400"/>
<path d="M292.144 80C292.144 96.7807 288.857 111.153 282.282 123.118C275.761 135.032 266.854 144.157 255.561 150.494C244.321 156.831 231.569 160 217.307 160C203.045 160 190.268 156.831 178.974 150.494C167.734 144.106 158.827 134.956 152.253 123.042C145.731 111.077 142.471 96.73 142.471 80C142.471 63.2193 145.731 48.872 152.253 36.9582C158.827 24.9937 167.734 15.8428 178.974 9.5057C190.268 3.16856 203.045 0 217.307 0C231.569 0 244.321 3.16856 255.561 9.5057C266.854 15.8428 275.761 24.9937 282.282 36.9582C288.857 48.872 292.144 63.2193 292.144 80ZM262.48 80C262.48 68.1876 260.544 58.2256 256.674 50.1141C252.857 41.9518 247.555 35.7921 240.768 31.635C233.982 27.4271 226.162 25.3232 217.307 25.3232C208.453 25.3232 200.633 27.4271 193.846 31.635C187.06 35.7921 181.731 41.9518 177.861 50.1141C174.044 58.2256 172.135 68.1876 172.135 80C172.135 91.8124 174.044 101.8 177.861 109.962C181.731 118.074 187.06 124.233 193.846 128.441C200.633 132.598 208.453 134.677 217.307 134.677C226.162 134.677 233.982 132.598 240.768 128.441C247.555 124.233 252.857 118.074 256.674 109.962C260.544 101.8 262.48 91.8124 262.48 80Z" fill="#99B400"/>
<path d="M55.193 157.871H0V2.12964H56.3064C72.4773 2.12964 86.3683 5.24751 97.9795 11.4833C109.644 17.6683 118.604 26.5656 124.86 38.1753C131.117 49.7849 134.245 63.6759 134.245 79.8483C134.245 96.0714 131.09 110.013 124.781 121.673C118.524 133.334 109.485 142.282 97.6614 148.518C85.8911 154.753 71.735 157.871 55.193 157.871ZM29.5052 133.46H53.7615C65.1076 133.46 74.5715 131.483 82.1533 127.529C89.735 123.524 95.4346 117.567 99.252 109.658C103.069 101.699 104.978 91.7621 104.978 79.8483C104.978 67.9345 103.069 58.0485 99.252 50.1905C95.4346 42.2817 89.788 36.3755 82.3123 32.4719C74.8896 28.5175 65.6643 26.5403 54.6363 26.5403H29.5052V133.46Z" fill="#99B400"/>
</svg>
