<svg width="60" height="60" viewBox="0 0 60 60" fill="none" xmlns="http://www.w3.org/2000/svg">
<rect width="60" height="60" rx="30" fill="#AFD74D"/>
<path d="M43.124 17.3313L37.5065 9.19386C37.0901 8.592 36.5368 8.0983 35.8922 7.75369C35.2476 7.40907 34.5304 7.22345 33.8001 7.21221L23.1394 7.05884H23.1174C17.6135 7.05884 13.3906 7.98204 10.6709 12.4876C8.13874 16.6815 7.05859 23.8257 7.05859 36.3752V37.909H10.553L8.30353 49.4118H11.4207L13.6701 37.909H14.7057C17.2035 37.9313 19.61 36.9675 21.4052 35.2257C23.0282 33.6684 24.1989 31.5379 24.7909 29.0646L24.7962 29.0424L27.4195 16.437H24.2947L21.8114 28.37C21.0551 31.5026 18.7936 34.8415 14.7057 34.8415H10.1232C10.2062 23.9842 11.192 17.5471 13.2876 14.0757C15.0464 11.1616 17.6173 10.1272 23.1068 10.1258L33.7561 10.2792C33.9996 10.2829 34.2386 10.3447 34.4535 10.4596C34.6684 10.5745 34.8528 10.7391 34.9916 10.9397L41.3461 20.1438L49.8821 21.5705V23.1962L48.4586 30.8092C48.0385 33.0562 47.3204 34.1881 44.3753 34.5428L32.3019 36.6142L32.2221 49.4118H35.2809L35.3447 39.2037L44.7792 37.5837C46.9166 37.3202 48.4935 36.6295 49.5994 35.4727C50.5447 34.4836 51.1201 33.22 51.4652 31.3746L52.9409 23.4812V18.972L43.124 17.3313Z" fill="white"/>
<path d="M41.4199 46.979H50.7609" stroke="white" stroke-width="1.41176"/>
<path d="M46.0156 42.0649L46.0156 51.4322" stroke="white" stroke-width="1.41176"/>
</svg>
